<?xml version="1.0" encoding="UTF-8"?>
<!DOCTYPE svg PUBLIC "-//W3C//DTD SVG 1.1//EN" "http://www.w3.org/Graphics/SVG/1.1/DTD/svg11.dtd">
<!-- Creator: CorelDRAW -->
<svg xmlns="http://www.w3.org/2000/svg" xml:space="preserve" width="1.98261in" height="2.63546in" version="1.1" style="shape-rendering:geometricPrecision; text-rendering:geometricPrecision; image-rendering:optimizeQuality; fill-rule:evenodd; clip-rule:evenodd"
viewBox="0 0 1977.01 2628.02"
 xmlns:xlink="http://www.w3.org/1999/xlink"
 xmlns:xodm="http://www.corel.com/coreldraw/odm/2003">
 <defs>
  <style type="text/css">
   <![CDATA[
    .fil2 {fill:black;fill-rule:nonzero}
    .fil1 {fill:#00A650;fill-rule:nonzero}
    .fil3 {fill:#00ADEF;fill-rule:nonzero}
    .fil4 {fill:#231F20;fill-rule:nonzero}
    .fil5 {fill:#D8AF7F;fill-rule:nonzero}
    .fil0 {fill:white;fill-rule:nonzero}
   ]]>
  </style>
 </defs>
 <g id="Layer_x0020_1">
  <metadata id="CorelCorpID_0Corel-Layer"/>
  <g id="_2948838732400">
   <g id="g10">
    <g id="g12">
     <g>
      <path id="path14" class="fil0" d="M718.05 1042.84c40.38,30.29 191.85,47.12 247.85,45.43 13.63,-0.41 22.33,-5.94 27.8,-14.01 5.48,8.07 14.18,13.6 27.8,14.01 56.01,1.69 207.46,-15.14 247.87,-45.43 40.39,-30.29 6.73,-89.2 13.47,-119.49 6.73,-30.3 89.18,-131.27 163.24,-134.63 74.04,-3.36 207,50.49 244.02,173.34 37.02,122.86 26.92,249.07 -67.32,301.24 -94.24,52.17 -183.43,23.56 -200.27,0 -16.83,-23.56 -87.51,-21.88 -114.44,13.47 -26.93,35.34 -121.17,97.61 -121.17,134.63 0,1.88 0.02,3.79 0.04,5.7 -19.48,-9.24 -42.98,-13.07 -54.51,12.95 -21.65,48.9 -62.28,189.29 -51.45,236.54 10.82,47.25 80.18,32.81 95.4,57.36 101.8,164.21 -1.75,297.35 -106.75,335.42 -1.28,-25.44 -11.5,-231.69 -9.96,-268.76 1.66,-39.75 10.2,-353.44 10.3,-356.6 0.16,-5.87 2.25,-11.31 6.03,-15.73 75.83,-88.69 125.49,-146.37 128.87,-149.93 3.68,-2.47 20.03,-6.66 30.86,-9.41 10.33,-2.65 21.02,-5.38 28.82,-8.22 10.81,-3.93 45.46,-29.53 124.2,-89.22 36.06,-27.34 73.33,-55.61 83.44,-61.66 26.05,-15.64 137.32,-75.8 146.99,-79.49l-4.14 -12.8 -3.21 -13.08c-10.68,2.62 -137.74,72.82 -153.51,82.28 -11.35,6.8 -45.87,32.98 -85.84,63.29 -42.64,32.33 -107.09,81.18 -117.14,85.38 -6.55,2.38 -16.58,4.94 -26.29,7.41 -22.9,5.87 -36.17,9.48 -42.58,15.92 -5.31,5.3 -74.13,85.6 -130.94,152.02 -7.73,9.03 -12.16,20.55 -12.5,32.5 -0.08,3.16 -8.62,316.67 -10.27,356.22 -1.7,40.55 9.62,264.37 10.09,273.88l17.34 -0.88c-22.01,6.78 -43.81,9.37 -63.51,7.01 -18.63,-2.24 -36.83,-5.7 -54.42,-10.14l1.3 0c0.3,-97.05 2.17,-355.04 7.08,-383.1 5.33,-30.46 2.14,-174.67 0.52,-235.27 -0.29,-10.45 -3.64,-20.5 -9.73,-29.06 -72.12,-101.06 -117.67,-155.36 -135.37,-161.38 -5.85,-1.98 -11.82,-3.77 -18.07,-5.68 -20.09,-6.07 -42.84,-12.94 -75.34,-30.45 -17.36,-9.34 -73.47,-47.48 -132.87,-87.83 -116.8,-79.39 -189.03,-127.89 -206.98,-132.15l-6.26 26.19c15.75,4.29 125.49,78.86 198.11,128.21 62.6,42.54 116.65,79.28 135.26,89.29 34.86,18.78 60.03,26.39 80.28,32.5 5.96,1.8 11.63,3.53 16.98,5.32 10.09,4.58 52.67,53.97 122.33,151.58 2.96,4.17 4.61,9.06 4.72,14.15 2.58,96.13 3.9,207 -0.12,229.91 -5.89,33.61 -7.26,328.82 -7.45,380.38 -80.04,-26.42 -141.06,-78.09 -148.45,-156.6 -9.7,-103.21 46.54,-171.24 72.4,-177.16 25.86,-5.93 49.99,-69.09 30.06,-106.35 -19.92,-37.26 -38.11,-144.32 -69.18,-158.39 -1.65,-0.75 -3.31,-1.5 -4.99,-2.23 3.54,-12.3 4.03,-26.3 4.03,-39.85 0,-37.03 -94.24,-99.29 -121.16,-134.63 -26.93,-35.34 -97.61,-37.02 -114.45,-13.47 -16.82,23.56 -106.01,52.17 -200.26,0 -94.25,-52.17 -104.34,-178.38 -67.32,-301.24 37.02,-122.85 169.98,-176.71 244.02,-173.34 74.05,3.36 156.51,104.34 163.25,134.63 6.73,30.29 -26.93,89.2 13.46,119.49l-0 0zm0 0l0 0 0 0z"/>
     </g>
     <g>
      <path id="path16" class="fil1" d="M1677.47 1523.48c91.3,-27.27 70.08,-128.93 60.44,-162.1l-85 86.27c11.18,1.62 19.01,4.16 21.02,7.51 3.47,5.76 4.55,32.95 3.54,68.33z"/>
      <g>
       <path id="path18" class="fil1" d="M1761.44 1636.91c38.86,-68 49.66,-161.15 50.42,-329.92l-23.54 11.82c5.46,66.53 -0.79,118.79 -20.15,181.18 -12.54,40.37 -59.64,65.2 -93.58,78.24 -4.27,57.82 -12.6,119.62 -24.22,146.19 -23.56,53.86 70.68,-16.83 111.06,-87.51l0 0zm0 0l0 0 0 0z"/>
      </g>
      <g>
       <path id="path20" class="fil1" d="M1929.73 1179.16c-3.35,-47.13 -28.13,-111.76 -44.35,-59.25 -9.62,31.12 -24.12,89.11 -33.69,167.05 -6.58,53.62 -10.84,116.58 -9.45,187.07 3.35,172.97 -28.73,205.92 -132.18,292.09 -103.44,86.2 -130.36,109.76 -130.36,109.76 0,0 64.03,-253.73 57.26,-315.35 -3.56,-32.42 -12.63,-58.33 -26.54,-69.75 -12.52,-10.27 -28.97,-8.83 -49.01,10.68 -42.29,41.19 -75.02,303.74 -112.5,377.78 -37.49,74.05 -74.85,153.02 -74.85,153.02 0,0 -74.38,164.22 0,207.55 74.38,43.33 89.4,46.69 245.13,-135.06 155.73,-181.75 300.47,-296.19 310.56,-454.38 10.11,-158.2 3.38,-424.09 0,-471.22l0 0zm0 0l0 0 0 0z"/>
      </g>
     </g>
     <path id="path22" class="fil0" d="M299.55 1523.48c-1.01,-35.38 0.07,-62.56 3.54,-68.33 2.01,-3.35 9.85,-5.89 21.02,-7.51l-85 -86.27c-9.64,33.17 -30.86,134.83 60.44,162.1z"/>
     <g>
      <path id="path24" class="fil0" d="M326.64 1724.42c-11.62,-26.57 -19.96,-88.36 -24.21,-146.19 -33.94,-13.03 -81.05,-37.86 -93.58,-78.24 -19.37,-62.39 -25.62,-114.65 -20.16,-181.18l-23.53 -46.54c0.77,168.78 11.56,296.63 50.42,364.64 40.39,70.68 134.63,141.36 111.06,87.51l0 0zm0 0l0 0 0 0z"/>
     </g>
     <g>
      <g>
       <path id="path26" class="fil1" d="M602.97 2239.81c74.38,-43.33 0,-207.55 0,-207.55 0,0 -37.36,-78.98 -74.85,-153.02 -37.49,-74.04 -70.21,-336.59 -112.5,-377.78 -20.04,-19.51 -36.49,-20.95 -49.01,-10.68 -13.92,11.42 -22.98,37.33 -26.55,69.75 -6.78,61.62 57.26,315.35 57.26,315.35 0,0 -26.92,-23.56 -130.36,-109.76 -103.44,-86.17 -135.53,-119.12 -132.17,-292.09 1.38,-70.49 -2.89,-133.45 -9.46,-187.07 -9.57,-77.94 -24.07,-135.94 -33.69,-167.05 -16.22,-52.51 -40.99,12.12 -44.36,59.25 -3.37,47.13 -10.1,313.02 0,471.22 10.09,158.19 154.83,272.63 310.55,454.38 155.74,181.75 170.75,178.38 245.13,135.06l0 -0zm0 0l0 0 0 0z"/>
      </g>
      <g>
       <path id="path28" class="fil1" d="M491.42 572.18c0,0 11.22,-2.24 24.68,-16.82 13.47,-14.58 113.32,-187.37 131.27,-224.39 17.95,-37.01 39.26,-30.29 39.26,-30.29l4.49 15.7c4.48,52.73 -53.86,132.4 -83.02,160.44 -29.17,28.05 0,49.36 0,49.36 0,0 14.58,-7.86 52.72,-57.23 38.15,-49.36 51.62,-137.99 51.62,-137.99l14.58 -17.95 22.49 0c1.01,2.52 2.43,5.78 4.44,10.1 14.58,31.41 -22.44,106.58 -42.63,140.24 -20.19,33.65 0,34.78 0,34.78 74.19,-52.75 70.68,-192.98 63.95,-206.45 -6.74,-13.46 -35.9,-5.61 -49.37,-11.2 -13.46,-5.62 0,-32.55 0,-32.55 0,0 56.1,-14.58 53.85,-6.74 -2.25,7.86 8.98,24.69 30.12,34.78 21.14,10.1 57.4,1.13 57.4,1.13l3.36 20.19 11.22 7.86c2.25,140.24 45.99,151.46 89.75,192.98 43.76,41.5 97.61,50.48 97.61,50.48 -15.7,40.38 2.26,108.83 2.26,108.83 0,0 28.04,12.35 50.48,-7.86 22.45,-20.19 12.35,-100.97 12.35,-105.46 0,-4.49 -17.96,29.17 -17.96,29.17l-12.37 -29.17c-12.37,-29.17 -24.64,-77.41 -24.64,-77.41 0,0 -13.47,-34.78 13.46,-7.86 26.92,26.93 29.17,28.04 37.02,11.22 7.85,-16.82 -6.73,-69.55 -6.73,-69.55 0,0 -1.13,-6.74 7.84,-3.37 8.98,3.37 29.17,20.44 29.17,20.44 0,0 4.49,-26.05 12.34,-21.57 7.86,4.5 8.97,13.47 17.95,38.15 8.98,24.69 24.69,12.34 24.69,12.34 0,0 -3.37,-16.83 1.12,-44.87 4.49,-28.04 23.56,-6.74 23.56,-6.74 5.61,58.35 54.98,109.96 54.98,109.96 22.44,-37.03 -33.66,-149.22 -33.66,-149.22 0,0 -13.47,-5.61 -43.75,-5.61 -30.29,0 -94.24,11.22 -94.24,11.22 0,0 -17.95,-2.25 -47.13,-38.14 -29.17,-35.9 -15.71,-52.74 -15.71,-52.74 0,0 12.34,-1.12 24.68,2.25 12.34,3.35 30.3,39.26 54.98,54.96 24.68,15.72 57.21,-7.86 79.67,-32.53 22.44,-24.69 22.44,-81.91 22.44,-81.91 -1.35,-21.9 -2.72,-43.81 -4.06,-65.71 -0.88,-14.29 10.18,-26.68 24.51,-26.96 14.33,-0.27 30.5,0.58 47.98,3.49 54.25,9.03 93.31,33.23 114.45,48.81 -8.81,-13.96 -81.35,-85.18 -158.2,-115.57 -28.19,-11.15 -50.65,6.83 -64.42,23.7 -9.94,12.15 -13.75,28.26 -10.67,43.66 12.45,62.2 7.61,110.71 -4.56,128.97 -13.47,20.2 -65.07,13.46 -65.07,13.46 -33.65,-24.68 -47.12,-134.63 -47.12,-177.26 0,-42.63 -25.47,-76.2 -83.03,-74.05 -57.55,2.16 -76.28,44.88 -76.28,44.88 0,0 22.44,8.97 49.35,44.87 26.93,35.9 11.22,148.09 11.22,148.09l-13.47 -4.5c0,0 -8.97,17.96 -47.11,17.96 -38.16,0 -87.52,-40.39 -87.52,-100.97 0,-60.59 -14.82,-104.99 -17.95,-105.46 -65.08,-10.11 -117.81,58.33 -158.2,70.68 -40.39,12.34 -44.88,34.78 -44.88,34.78 51.61,12.33 88.63,-22.44 129.02,-49.37 40.39,-26.92 44.87,-10.1 44.87,-10.1 6.74,47.13 -11.21,75.17 -11.21,75.17 -32.54,-5.61 -23.56,-28.04 -23.56,-28.04 0,0 -28.05,4.48 -63.96,35.9 -35.9,31.41 -88.63,33.66 -88.63,33.66 1.12,34.77 39.27,24.67 39.27,24.67l-11.22 22.44c-22.44,-4.48 -30.29,12.34 -30.29,12.34 8.97,22.44 41.51,14.58 41.51,14.58l-3.37 13.47c-37.02,22.42 -115.56,179.5 -138,217.66 -22.44,38.14 0,43.74 0,43.74l-0 0zm0 0l0 0 0 0z"/>
      </g>
      <g>
       <path id="path30" class="fil1" d="M834.72 426.9c9.54,25.24 22.44,19.63 22.44,19.63 0,0 11.23,-52.73 0,-86.38 -11.21,-33.66 -14.58,-38.14 -14.58,-38.14 0,0 -23.56,-10.1 -33.65,11.2 -10.1,21.32 -35.91,103.23 -33.65,121.18l2.23 17.95c0,0 36.27,-10.25 41.14,-76.37 4.86,-66.12 16.08,-23.47 16.08,-23.47 0,0 -7.62,34.21 0,54.4l-0 -0zm0 0l0 0 0 0z"/>
      </g>
      <g>
       <path id="path32" class="fil1" d="M1309.3 298.44c17.95,-11.22 29.73,7.84 29.73,7.84 6.17,-12.32 -9.54,-30.29 -9.54,-30.29 0,0 12.34,-13.45 32.55,4.5 20.19,17.95 36.02,16.81 36.02,16.81 -11.1,-10.09 -21.44,-58.33 -21.44,-58.33 11.97,-3.36 23.94,-6.73 35.9,-10.1 -26.33,-46.95 -53.76,-62.9 -74.58,-68.5 -26.49,-7.11 -72.4,-5.55 -72.4,-5.55 -0.92,9.38 -1.72,23.2 -0.57,39.83 1.45,20.6 5.05,33.29 7.3,45.43 3.19,17.13 5.3,41.85 0,74.05 0,0 19.08,-4.49 37.03,-15.71l0 0zm0 0l0 0 0 0z"/>
      </g>
      <g>
       <path id="path34" class="fil1" d="M1388.96 536.28c0,0 20.19,-7.84 -7.86,-56.09 -28.05,-48.25 -40.53,-76.29 -46.63,-112.2 -6.1,-35.9 -37.51,-22.44 -37.51,-22.44 0,0 10.09,137.99 91.99,190.73l0 0zm0 0l0 0 0 0z"/>
      </g>
      <path id="path36" class="fil1" d="M1381.1 347.8c0,0 -6.73,108.83 61.71,163.8 68.44,54.97 74.05,60.58 74.05,60.58 0,0 -2.25,-28.04 -42.64,-94.23 -40.39,-66.2 -62.83,-115.57 -93.13,-130.15z"/>
      <g>
       <path id="path38" class="fil1" d="M1001.9 651.84c13.47,-2.24 13.47,-84.14 13.47,-84.14 0,0 -25.81,3.36 -42.63,-16.83 -16.83,-20.2 -38.16,-21.32 -42.64,-6.74 -4.49,14.58 -49.36,96.49 14.58,133.51 0,0 22.44,-15.7 42.64,0 0,0 1.11,-23.56 14.58,-25.81l-0 0zm0 0l0 0 0 0z"/>
      </g>
      <g>
       <path id="path40" class="fil1" d="M1189.26 611.45c-8.97,21.32 8.98,43.76 8.98,43.76l21.32 0c0,0 0,-16.84 20.18,-13.47 20.2,3.36 38.16,-4.49 38.16,-4.49 0,0 -5.62,-2.24 -21.46,-20.19 -15.85,-17.95 -39.54,-24.94 -36.87,-21.32 12.33,16.83 3.35,29.73 3.35,29.73l-33.65 -14.02 -0 0zm0 0l0 0 0 0z"/>
      </g>
      <path id="path42" class="fil1" d="M1114.1 808.92c1.07,-0.36 0.4,-1.19 -1.41,-2.15 0.17,1.79 0.48,2.45 1.41,2.15z"/>
      <path id="path44" class="fil1" d="M1079.32 707.94c0,0 -7.86,-5.61 -8.98,32.54 -1.13,38.14 -13.45,54.98 -13.45,54.98 0,0 12.32,6.74 30.29,6.74 12.21,0 21.67,2.57 25.51,4.58 -0.41,-4.65 0.37,-17.66 -5.32,-46.1 -7.86,-39.27 -28.04,-52.74 -28.04,-52.74z"/>
      <g>
       <path id="path46" class="fil1" d="M1001.9 773.01c0,0 23.56,2.25 32.54,-14.68 8.98,-16.94 0,-50.68 0,-50.68 0,0 -10.1,7.02 -32.54,13.75 -22.44,6.74 -10.1,51.72 -10.1,51.72l10.1 -0.11 0 0zm0 0l0 0 0 0z"/>
      </g>
      <g>
       <path id="path48" class="fil1" d="M933.46 758.33c-11.23,27.03 -22.84,36 -22.84,36 0,0 22.84,14.59 43.03,0 20.2,-14.59 9.33,-28.17 9.33,-28.17l0 -34.65c-2.6,0 -18.31,-0.22 -29.52,26.82l0 0zm0 0l0 0 0 0z"/>
      </g>
      <g>
       <path id="path50" class="fil1" d="M300.68 2390.83c-0.04,0.04 93.51,-62.03 171.45,-88.66 -25.4,-32.92 -75.02,-55.39 -132.18,-55.39 -82.89,0 -150.33,47.16 -150.33,105.13 0,26.93 42.91,74.29 111.06,38.93l0 -0zm0 0l0 0 0 0z"/>
      </g>
      <g>
       <path id="path52" class="fil1" d="M1680.17 2426.2c-118.39,-70.21 -307.22,-153.81 -584.81,-167.98l-0.41 2.29c-30.06,-2.16 -60.57,-3.73 -91.81,-4.27 -3.29,0.02 -6.45,-0.06 -9.76,-0.02 -3.31,-0.04 -6.47,0.04 -9.76,0.02 -31.24,0.54 -61.75,2.11 -91.81,4.27l-0.4 -2.29c-277.6,14.17 -466.43,97.77 -584.82,167.98 -49.65,29.44 -74.13,8.33 -74.05,8.41l109.57 133.48c27.03,26.92 69.39,30.46 100.62,8.55 127.47,-89.4 320.28,-146.53 535.81,-146.53 4.99,0 9.87,0.28 14.84,0.35 4.96,-0.07 9.84,-0.35 14.84,-0.35 215.54,0 408.34,57.13 535.81,146.53 31.24,21.91 73.59,18.36 100.63,-8.55l109.57 -133.48c0.08,-0.07 -24.4,21.03 -74.05,-8.41l0 0zm0 0l0 0 0 0z"/>
      </g>
      <g>
       <path id="path54" class="fil1" d="M1646.79 2246.78c-57.14,0 -106.77,22.48 -132.18,55.39 77.95,26.63 171.5,88.7 171.45,88.66 68.16,35.36 111.07,-12 111.07,-38.93 0,-57.97 -67.45,-105.13 -150.35,-105.13l0 0zm0 0l0 0 0 0z"/>
      </g>
     </g>
     <path id="path56" class="fil2" d="M1013.42 52.17c0,5.26 -7.86,9.54 -17.54,9.54 -9.69,0 -17.54,-4.28 -17.54,-9.54 0,-5.26 7.86,-9.53 17.54,-9.53 9.69,0 17.54,4.26 17.54,9.53z"/>
     <g>
      <path id="path58" class="fil3" d="M1182.92 1142.98l-1.21 0.19 1.21 -0.19zm19.46 119.59l-0.05 0 0.05 0zm-148.09 817.17l-121.17 -16.37 5.14 -628.41c-45.19,-74.05 -126.66,-188.32 -213.47,-205.32 -77.41,-15.14 -306.27,-197.81 -334.76,-218.84l64.68 -87.6c103.94,76.75 163.72,149.93 338.13,218.06 54.14,21.14 141.32,103.7 197.22,155.92 83.08,-67.54 107.33,-109.78 157.98,-119.71 36.77,-12.12 257.84,-141.83 405.2,-244.03l60.98 78.41c-155.59,62.37 -350.57,216.86 -408.79,250.11 -22.46,9.9 -88.87,95.62 -148.77,164.64l-2.38 653.12 0 0zm0 0l0 0 0 0z"/>
     </g>
     <g>
      <path id="path60" class="fil4" d="M1657.1 1474.03c0,0 36.75,1.96 57.08,-60.63 20.33,-62.59 -76.15,30.33 -76.15,30.33l19.07 30.3z"/>
      <g>
       <path id="path62" class="fil4" d="M1929.73 1650.37c-10.09,158.19 -154.83,272.63 -310.56,454.38 -155.73,181.75 -170.75,178.38 -245.13,135.06 -74.38,-43.33 0,-207.55 0,-207.55 0,0 37.36,-78.98 74.85,-153.02 37.49,-74.04 70.21,-336.59 112.5,-377.78 20.04,-19.51 36.49,-20.95 49.01,-10.68 13.91,11.42 22.98,37.33 26.54,69.75 6.78,61.62 -57.26,315.35 -57.26,315.35 0,0 26.92,-23.56 130.36,-109.76 103.44,-86.17 135.53,-119.12 132.18,-292.09 -1.38,-70.49 2.87,-133.45 9.45,-187.07 9.57,-77.94 24.07,-135.94 33.69,-167.05 16.22,-52.51 41,12.12 44.35,59.25 3.38,47.13 10.11,313.02 0,471.22l0 -0zm-132.6 701.53c0,26.93 -42.91,74.29 -111.07,38.93 0.05,0.04 -93.5,-62.03 -171.45,-88.66 25.41,-32.92 75.04,-55.39 132.18,-55.39 82.9,0 150.35,47.16 150.35,105.13l0 -0zm-152.49 216.18c-27.03,26.92 -69.39,30.46 -100.63,8.55 -127.47,-89.4 -320.27,-146.53 -535.81,-146.53 -4.99,0 -9.87,0.28 -14.84,0.35 -4.97,-0.07 -9.85,-0.35 -14.84,-0.35 -215.54,0 -408.34,57.13 -535.81,146.53 -31.23,21.91 -73.59,18.36 -100.62,-8.55l-109.57 -133.48c-0.08,-0.07 24.4,21.03 74.05,-8.41 118.39,-70.21 307.23,-153.81 584.82,-167.98l0.4 2.29c30.06,-2.16 60.57,-3.73 91.81,-4.27 3.29,0.02 6.45,-0.06 9.76,-0.02 3.3,-0.04 6.47,0.04 9.76,0.02 31.24,0.54 61.75,2.11 91.81,4.27l0.41 -2.29c277.59,14.17 466.42,97.77 584.81,167.98 49.66,29.44 74.13,8.33 74.05,8.41l-109.58 133.48zm-1455.03 -216.18c0,-57.97 67.44,-105.13 150.33,-105.13 57.15,0 106.78,22.48 132.18,55.39 -77.94,26.63 -171.49,88.71 -171.45,88.67 -68.15,35.36 -111.06,-12 -111.06,-38.93l0 0zm-142.33 -701.53c-10.1,-158.2 -3.37,-424.09 0,-471.22 3.36,-47.13 28.14,-111.76 44.36,-59.25 9.61,31.12 24.12,89.11 33.69,167.05 6.58,53.62 10.84,116.58 9.46,187.07 -3.36,172.97 28.73,205.92 132.17,292.09 103.44,86.2 130.36,109.76 130.36,109.76 0,0 -64.04,-253.73 -57.26,-315.35 3.56,-32.42 12.63,-58.33 26.55,-69.75 12.52,-10.27 28.97,-8.83 49.01,10.68 42.29,41.19 75.01,303.74 112.5,377.78 37.49,74.05 74.85,153.02 74.85,153.02 0,0 74.38,164.22 0,207.55 -74.38,43.33 -89.39,46.69 -245.13,-135.06 -155.73,-181.75 -300.46,-296.19 -310.55,-454.38l0 0zm252.26 -126.89c-79.28,-23.68 -73.72,-103.4 -64.56,-145.72 6.03,6.3 12.19,12.48 18.58,18.49 23.72,22.26 47.64,38.73 71.17,51.32l-0.64 0.08c-11.17,1.62 -19.01,4.16 -21.02,7.51 -3.47,5.76 -4.55,32.95 -3.54,68.33zm-90.7 -23.48c12.54,40.37 59.64,65.2 93.58,78.24 4.26,57.82 12.6,119.62 24.21,146.19 23.57,53.86 -70.68,-16.83 -111.06,-87.51 -38.86,-68 -49.65,-161.15 -50.42,-329.92 -0.03,-6.67 -0.06,-13.22 -0.06,-20.14l-0.04 -2.58c7.24,12.56 15.13,24.78 23.5,36.71 -5.14,65.48 1.13,117.32 20.29,179.01zm-27.65 -650.7c60.59,-79.09 142.73,-190.16 300.24,-205.31 157.51,-15.14 239.97,49.56 310.66,129.13 70.68,79.55 181.75,180.53 186.81,212.5 1.83,11.66 5.76,26.22 7.52,39.86 -0.86,7.54 -1.22,15.86 -0.49,23.97 -3.06,12.01 -12,19.99 -32.77,18.63 -51.68,-3.36 -179.58,-28.61 -201.46,-40.38 -21.88,-11.79 -31.98,-57.23 -30.29,-87.52 1.69,-30.29 -18.51,-96.99 -89.2,-139.37 -70.68,-42.38 -126.63,-55.22 -176.71,-27.69 -7.7,4.24 -149.77,55.99 -181.75,195.68 -31.97,139.68 -28.81,248.76 90.88,324.79 119.67,76.05 257.47,-20.2 257.47,-20.2l33.66 18.51c0,0 114.43,92.56 111.08,117.81 -1.73,12.92 -0.84,23.63 -6.1,31.69 -11.71,-0.32 -22.93,3.46 -32.81,14.59 -2.1,0.3 -4.2,0.6 -6.53,0.83 -41.19,4.27 -170.96,22.81 -254.5,15.37 -13.21,-16.02 -54.12,-24.12 -91.93,-26.06 -42.24,-18.7 -91.55,-47.81 -134.48,-89.38 1.2,-3.77 2.01,-5.94 2.01,-5.94 0,0 -40.09,-95.81 -51.17,-52.67 -10.38,-15.5 -19.64,-32.18 -27.52,-50.08 -4.1,-63.85 -18.09,-115.01 -36.2,-150.05 -7.88,-99.1 12.62,-195.22 53.59,-248.7l-0 -0zm281.16 -218.61c29.41,-9.03 43.6,-19.13 47.52,-22.04 14.04,-10.44 26,-23.7 35.05,-39.07l4.83 -8.21c172.78,-13.05 199.7,-52.31 199.7,-52.31 0,0 20.2,2.55 51.61,-18.29 31.41,-20.84 89.75,-33.57 89.75,-33.57 6.74,75.74 60.59,40.95 22.44,71.83 -38.14,30.9 -29.17,159.69 -29.17,159.69l15.7 -4.48 2.26 40.41 20.18 1.63c0,33.55 -70.24,61.69 -84.72,67.15 -49.04,-48.9 -100.43,-97 -137.98,-124.19 -97.61,-70.68 -237.17,-38.54 -237.17,-38.54 0,0 205.2,-13.63 -7.89,2.29l-0.01 0c2.8,-0.77 5.45,-1.53 7.9,-2.3l-0 0zm356.29 -234.73c-4.86,66.12 -41.14,76.37 -41.14,76.37l-2.23 -17.95c-2.26,-17.95 23.55,-99.86 33.65,-121.17 10.1,-21.31 33.65,-11.21 33.65,-11.21 0,0 3.37,4.48 14.58,38.14 11.23,33.65 0,86.38 0,86.38 0,0 -12.89,5.61 -22.44,-19.63 -7.62,-20.19 0,-54.4 0,-54.4 0,0 -11.22,-42.65 -16.08,23.47l0 0zm-327.22 132.47c22.44,-38.16 100.97,-195.23 138,-217.66l3.36 -13.47c0,0 -32.53,7.86 -41.51,-14.58 0,0 7.85,-16.83 30.29,-12.34l11.22 -22.44c0,0 -38.15,10.1 -39.27,-24.67 0,0 52.73,-2.25 88.62,-33.66 35.91,-31.42 63.96,-35.9 63.96,-35.9 0,0 -8.98,22.44 23.56,28.04 0,0 17.95,-28.04 11.21,-75.17 0,0 -4.48,-16.83 -44.88,10.1 -40.39,26.93 -77.41,61.7 -129.02,49.37 0,0 4.48,-22.44 44.88,-34.78 40.39,-12.35 93.12,-80.79 158.2,-70.68 3.13,0.47 17.95,44.87 17.95,105.46 0,60.57 49.36,100.96 87.52,100.96 38.14,0 47.11,-17.95 47.11,-17.95l13.47 4.49c0,0 15.71,-112.19 -11.22,-148.09 -26.92,-35.9 -49.35,-44.87 -49.35,-44.87 0,0 18.73,-42.73 76.28,-44.88 57.56,-2.16 83.03,31.42 83.03,74.04 0,42.64 13.47,152.58 47.12,177.27 0,0 51.61,6.74 65.07,-13.47 12.17,-18.26 17.01,-66.77 4.56,-128.97 -3.08,-15.41 0.73,-31.51 10.67,-43.67 13.78,-16.87 36.23,-34.85 64.42,-23.7 76.85,30.39 149.4,101.61 158.2,115.56 -21.13,-15.57 -60.2,-39.77 -114.45,-48.8 -17.48,-2.91 -33.65,-3.77 -47.98,-3.49 -14.33,0.29 -25.39,12.67 -24.51,26.97 1.34,21.91 2.7,43.81 4.06,65.71 0,0 0,57.22 -22.44,81.91 -22.46,24.67 -54.98,48.25 -79.66,32.53 -24.68,-15.7 -42.64,-51.61 -54.98,-54.96 -12.34,-3.38 -24.68,-2.26 -24.68,-2.26 0,0 -13.47,16.84 15.71,52.74 29.17,35.9 47.13,38.15 47.13,38.15 0,0 63.94,-11.22 94.23,-11.22 30.29,0 43.75,5.61 43.75,5.61 0,0 56.1,112.19 33.66,149.22 0,0 -49.37,-51.61 -54.98,-109.95 0,0 -19.06,-21.31 -23.56,6.74 -4.5,28.05 -1.12,44.87 -1.12,44.87 0,0 -15.71,12.34 -24.69,-12.35 -8.97,-24.67 -10.09,-33.64 -17.95,-38.14 -7.86,-4.48 -12.35,21.57 -12.35,21.57 0,0 -20.19,-17.07 -29.17,-20.45 -8.97,-3.36 -7.84,3.38 -7.84,3.38 0,0 14.58,52.73 6.73,69.55 -7.86,16.83 -10.1,15.71 -37.02,-11.22 -26.93,-26.93 -13.47,7.85 -13.47,7.85 0,0 12.28,48.25 24.64,77.41l12.37 29.17c0,0 17.95,-33.66 17.95,-29.17 0,4.49 10.1,85.27 -12.34,105.46 -22.44,20.2 -50.48,7.86 -50.48,7.86 0,0 -17.95,-68.45 -2.25,-108.83 0,0 -53.84,-8.98 -97.61,-50.48 -43.75,-41.52 -87.5,-52.73 -89.74,-192.98l-11.22 -7.86 -3.36 -20.19c0,0 -36.26,8.97 -57.41,-1.13 -21.13,-10.09 -32.36,-26.92 -30.11,-34.78 2.25,-7.84 -53.85,6.74 -53.85,6.74 0,0 -13.46,26.93 0,32.55 13.47,5.6 42.63,-2.25 49.37,11.21 6.73,13.47 10.24,153.7 -63.95,206.45 0,0 -20.19,-1.13 0,-34.78 20.19,-33.66 57.22,-108.84 42.64,-140.24 -2.01,-4.33 -3.44,-7.58 -4.44,-10.1l-22.48 -0 -14.58 17.95c0,0 -13.47,88.63 -51.62,137.99 -38.14,49.36 -52.72,57.23 -52.72,57.23 0,0 -29.17,-21.32 0,-49.36 29.17,-28.04 87.5,-107.72 83.02,-160.44l-4.49 -15.7c0,0 -21.32,-6.73 -39.26,30.29 -17.95,37.02 -117.8,209.81 -131.27,224.39 -13.47,14.58 -24.68,16.82 -24.68,16.82 0,0 -22.44,-5.61 0,-43.75l0 0zm982.82 -50.49c40.38,66.19 42.64,94.24 42.64,94.24 0,0 -5.61,-5.61 -74.05,-60.58 -68.44,-54.97 -61.71,-163.8 -61.71,-163.8 30.3,14.58 52.74,63.94 93.13,130.15zm-139.76 -109.95c6.1,35.91 18.58,63.95 46.63,112.2 28.05,48.25 7.86,56.09 7.86,56.09 -81.9,-52.74 -91.99,-190.73 -91.99,-190.73 0,0 31.41,-13.46 37.51,22.44l-0 -0zm-62.2 -127.9c-2.25,-12.14 -5.85,-24.83 -7.29,-45.43 -1.16,-16.63 -0.35,-30.45 0.57,-39.83 0,0 45.91,-1.56 72.4,5.55 20.82,5.6 48.25,21.55 74.58,68.5 -11.96,3.38 -23.94,6.74 -35.9,10.1 0,0 10.33,48.25 21.44,58.34 0,0 -15.83,1.13 -36.02,-16.82 -20.2,-17.95 -32.55,-4.5 -32.55,-4.5 0,0 15.71,17.96 9.54,30.29 0,0 -11.78,-19.06 -29.73,-7.84 -17.95,11.22 -37.03,15.71 -37.03,15.71 5.31,-32.2 3.19,-56.92 0,-74.05l-0 -0zm-71.8 442.63c35.9,2.83 53.84,-27.5 53.84,-27.5 42.65,0 67.33,-18.41 67.33,-18.41 0,0 -141.36,-93.79 -154.83,-127.74 -13.47,-33.95 44.87,-22.42 44.87,-22.42l6.73 17.98 40.39 15.08 8.97 11.88 67.33 3.94 74.03 88.18 1.09 -0.04 0.99 1.74c-40.28,4.23 -85.03,16.09 -123.36,43.83 -37.24,26.97 -88.1,74.53 -136.79,123.02 -0.19,-0.17 -15.72,-13.91 -24.65,-58.8 -8.97,-45.18 4.49,-33.36 31.43,-34.69 26.92,-1.32 42.62,-16.04 42.62,-16.04l-0 -0zm19.08 -86.98c-2.67,-3.62 21.02,3.38 36.87,21.32 15.84,17.95 21.46,20.19 21.46,20.19 0,0 -17.95,7.86 -38.16,4.5 -20.18,-3.38 -20.18,13.46 -20.18,13.46l-21.31 0c0,0 -17.95,-22.44 -8.98,-43.76l33.65 14.02c0,0 8.97,-12.89 -3.35,-29.73l0 0zm46.92 893.17c37.8,0.41 84.69,2.09 126.2,2.14 -28.27,36.89 -54.33,75.25 -78.35,115.03 -18.84,-47.97 -36.75,-90.94 -47.86,-117.17l0 0zm-209.6 -693.46c0,0 12.33,-16.84 13.45,-54.98 1.13,-38.15 8.98,-32.54 8.98,-32.54 0,0 20.19,13.47 28.04,52.74 5.69,28.44 4.91,41.45 5.33,46.1 -3.84,-2.01 -13.31,-4.58 -25.51,-4.58 -17.96,0 -30.29,-6.74 -30.29,-6.74zm51.9 39.64c-60.91,62.7 -109.79,116.86 -109.79,116.86l-5.3 33.41 -5.28 -33.41c0,0 -55.45,-61.46 -121.86,-129.22l10.39 10.64 231.84 1.72zm-175.32 -76.77c11.22,-27.03 26.92,-26.82 29.52,-26.82l0 34.65c0,0 10.87,13.58 -9.33,28.17 -20.19,14.59 -43.03,0 -43.03,0 0,0 11.61,-8.97 22.84,-36l0 -0zm100.97 -50.68c0,0 8.98,33.74 0,50.68 -8.97,16.93 -32.54,14.68 -32.54,14.68l-10.1 0.11c0,0 -12.34,-44.98 10.1,-51.72 22.44,-6.73 32.54,-13.75 32.54,-13.75l0 -0zm-32.54 -55.81c-13.46,2.25 -14.58,25.81 -14.58,25.81 -20.2,-15.7 -42.64,0 -42.64,0 -63.95,-37.02 -19.08,-118.93 -14.58,-133.51 4.48,-14.58 25.8,-13.46 42.64,6.74 16.81,20.19 42.62,16.83 42.62,16.83 0,0 0,81.9 -13.46,84.14l0 0zm-283.85 391c40.38,30.29 191.85,47.12 247.85,45.43 13.63,-0.41 22.33,-5.94 27.8,-14.01 5.48,8.07 14.18,13.6 27.8,14.01 56.01,1.69 207.46,-15.14 247.87,-45.43 40.39,-30.29 6.73,-89.2 13.47,-119.49 6.73,-30.3 89.18,-131.27 163.24,-134.63 74.04,-3.36 207,50.49 244.02,173.34 37.02,122.86 26.92,249.07 -67.32,301.24 -94.24,52.17 -183.43,23.56 -200.27,0 -16.83,-23.56 -87.51,-21.88 -114.44,13.47 -26.93,35.34 -121.17,97.61 -121.17,134.63 0,1.88 0.02,3.79 0.04,5.7 -19.48,-9.24 -42.98,-13.07 -54.51,12.95 -21.65,48.9 -62.28,189.29 -51.45,236.54 10.82,47.25 80.18,32.81 95.4,57.36 101.8,164.21 -1.75,297.35 -106.75,335.42 -1.28,-25.44 -11.5,-231.69 -9.96,-268.76 1.66,-39.75 10.2,-353.44 10.3,-356.6 0.16,-5.87 2.25,-11.31 6.03,-15.73 75.83,-88.69 125.49,-146.37 128.87,-149.93 3.68,-2.47 20.03,-6.66 30.86,-9.41 10.33,-2.65 21.02,-5.38 28.82,-8.22 10.81,-3.93 45.46,-29.53 124.2,-89.22 36.06,-27.34 73.33,-55.61 83.44,-61.66 26.05,-15.64 137.32,-75.8 146.99,-79.49l-4.14 -12.8 -3.21 -13.08c-10.68,2.62 -137.74,72.82 -153.51,82.28 -11.35,6.8 -45.87,32.98 -85.84,63.29 -42.64,32.33 -107.09,81.18 -117.14,85.38 -6.55,2.38 -16.58,4.94 -26.29,7.41 -22.9,5.87 -36.17,9.48 -42.58,15.92 -5.31,5.3 -74.13,85.6 -130.94,152.02 -7.73,9.03 -12.16,20.55 -12.5,32.5 -0.08,3.16 -8.62,316.67 -10.27,356.22 -1.7,40.55 9.62,264.37 10.09,273.88l17.34 -0.88c-22.01,6.78 -43.81,9.37 -63.51,7.01 -18.63,-2.24 -36.83,-5.7 -54.42,-10.14l1.3 0c0.3,-97.05 2.17,-355.04 7.08,-383.1 5.33,-30.46 2.14,-174.67 0.52,-235.27 -0.29,-10.45 -3.64,-20.5 -9.73,-29.06 -72.12,-101.06 -117.67,-155.36 -135.37,-161.38 -5.85,-1.98 -11.82,-3.77 -18.07,-5.68 -20.09,-6.07 -42.84,-12.94 -75.34,-30.45 -17.36,-9.34 -73.47,-47.48 -132.87,-87.83 -116.8,-79.39 -189.03,-127.89 -206.98,-132.15l-6.26 26.19c15.75,4.29 125.49,78.86 198.11,128.21 62.6,42.54 116.65,79.28 135.26,89.29 34.86,18.78 60.03,26.39 80.28,32.5 5.96,1.8 11.63,3.53 16.98,5.32 10.09,4.58 52.67,53.97 122.33,151.58 2.96,4.17 4.61,9.06 4.72,14.15 2.58,96.13 3.9,207 -0.12,229.91 -5.89,33.61 -7.26,328.82 -7.45,380.38 -80.04,-26.42 -141.06,-78.09 -148.45,-156.6 -9.7,-103.21 46.54,-171.24 72.4,-177.16 25.86,-5.93 49.99,-69.09 30.06,-106.35 -19.92,-37.26 -38.11,-144.32 -69.18,-158.39 -1.65,-0.75 -3.31,-1.5 -4.99,-2.23 3.54,-12.3 4.03,-26.3 4.03,-39.85 0,-37.03 -94.24,-99.29 -121.16,-134.63 -26.93,-35.34 -97.61,-37.02 -114.45,-13.47 -16.82,23.56 -106.01,52.17 -200.26,0 -94.25,-52.17 -104.34,-178.38 -67.32,-301.24 37.02,-122.85 169.98,-176.71 244.02,-173.34 74.05,3.36 156.51,104.34 163.25,134.63 6.73,30.29 -26.93,89.2 13.46,119.49l-0 0zm612.11 984.75c-69.65,133.57 -192.55,164 -280.83,187.51 -88.27,23.51 -238.68,-27.81 -334.15,-128.51 -95.48,-100.68 -102.35,-249.29 -94.27,-322.32 3.65,-32.99 22.8,-80.42 44.68,-126.33 9.03,-3.01 15.53,-11.29 11.12,-22.73 23.5,-47.04 47.7,-89.54 58.05,-109.04 4.05,-7.65 7.74,-13.43 11.23,-17.77 13.21,-1.04 23.21,-4.33 30.79,-9.23 4.27,1.4 8.81,3.2 13.94,4.72 22.41,6.62 58.72,143.06 58.72,143.06l3.38 36.81c0,0 -130.58,85.3 -110.02,220.09 20.55,134.78 109.43,189.01 239.73,203.92 221.89,25.4 267.78,-184.18 257.77,-262.83 -10.03,-78.64 -45.93,-112.25 -71.96,-122.28 -26.02,-10.03 -60.51,-36.24 -62.49,-60.08 -1.97,-23.84 23.06,-146.57 38.93,-193.56 9.19,-27.29 25.76,-25.55 42.92,-16.07 2.54,28.24 13.41,53.34 56.87,55.59 25.12,49.36 58.3,144.79 89.53,215.13 32.16,72.42 53.92,147.81 28.93,240.88 -12.39,28.13 -22.61,54.52 -30.95,79.11 -0.67,1.32 -1.22,2.6 -1.9,3.93l0 -0.01zm-28.47 220.99c-61.37,-10.59 -125.67,-17.78 -192.32,-21.44 79.02,-19.79 155.53,-64.36 205.14,-144.46 -20.65,81.38 -18.13,141.46 -12.82,165.9zm-707.01 -757.54c37.59,-0.04 79.52,-1.4 115.21,-1.97 -12.78,30.65 -29.75,68.55 -44.56,103.97 -10.6,-16.63 -23.75,-29.74 -37.19,-46.48 -13.98,-17.43 -19.36,-38.81 -33.46,-55.52zm-37.79 19.34c17.91,14.31 22.81,37.2 35.52,55.52 14.84,21.38 35.28,34.56 45.29,59.85 2.15,5.43 5.87,9.01 10.17,11.14 -3.58,9.6 -6.86,18.8 -9.3,26.83 -14.62,48.07 -68.7,143.55 -22.09,279.35 46.61,135.81 151.62,243.39 278.36,281.42 1.73,0.51 3.53,0.98 5.28,1.48 -77.95,3.31 -152.85,11.35 -223.74,24 10.98,-23.72 18.75,-180.05 -124.23,-426.27 0,0 -73.06,-284.28 -80.3,-337.49 23.14,1.3 42.96,1.19 57.7,2.61 6.66,0.65 14.16,1.09 22.03,1.43 -2.99,6.47 -2.23,14.14 5.3,20.14l0 0zm830.92 314.68c-9.81,-46.21 -33.74,-115.1 -58.6,-180.51 5.59,-0.44 11.04,-3.27 14.77,-9.55 25.86,-43.62 54.23,-85.48 85.16,-125.66 5.26,-6.83 4.84,-13.59 1.44,-18.86 9.9,-0.35 19.12,-0.88 27.26,-1.67 12.47,-1.21 28.58,-1.28 47.26,-2.07 -7.7,54.69 -80.23,336.95 -80.23,336.95 -12.09,20.81 -22.96,40.89 -32.95,60.35 1.08,-19.21 0.12,-39.05 -4.11,-58.98l-0 -0zm286.79 -246.82c33.94,-13.03 81.04,-37.86 93.58,-78.24 17.82,-57.39 24.4,-106.33 21.11,-165.57 8.04,-10.68 15.47,-21.74 22.59,-32.98 -0.01,1.82 -0.02,3.71 -0.02,5.54 -0.77,168.77 -11.56,261.92 -50.42,329.92 -40.38,70.68 -134.63,141.36 -111.06,87.51 11.62,-26.57 19.96,-88.36 24.22,-146.19l0 0zm-0.67 -123.08c-1.54,-2.58 -6.55,-4.66 -13.82,-6.22 24.34,-12.75 49.15,-29.62 73.73,-52.69 3.4,-3.2 6.61,-6.57 9.91,-9.85 7.8,43.74 7.86,114.95 -66.29,137.08 1.01,-35.38 -0.07,-62.56 -3.54,-68.33l0 0zm132.27 -605.86c38.26,49.96 58.7,137.1 54.83,229.12 -25.92,37.46 -46.73,104.53 -48.89,193.11 -7.42,13.69 -15.55,26.7 -24.45,38.82 -6.76,-70.51 -53.18,40.46 -53.18,40.46 0,0 1.48,3.93 3.4,10.57 0.28,0.97 0.59,2.18 0.89,3.25 -40.64,37.19 -86.11,63.58 -125.49,81.09 -41.21,0.82 -90.19,9.13 -103.84,27.38 -83.52,5.01 -204.08,-12.2 -243.48,-16.27 -13.63,-1.4 -22.81,-3.76 -29.21,-6.94l-6.66 -4.44c-9.11,-8.36 -7.54,-20.51 -9.57,-35.74 -3.37,-25.24 111.06,-117.81 111.06,-117.81l33.66 -18.51c0,0 137.81,96.24 257.49,20.2 119.68,-76.04 122.85,-185.12 90.87,-324.8 -31.97,-139.68 -174.05,-191.44 -181.75,-195.68 -50.07,-27.52 -106.01,-14.69 -176.7,27.69 -70.68,42.38 -90.88,109.08 -89.2,139.37 1.68,30.29 -8.42,75.73 -30.3,87.52 -21.87,11.78 -149.77,37.02 -201.45,40.38 -20.78,1.36 -29.72,-6.62 -32.78,-18.63 0.73,-8.11 0.37,-16.42 -0.5,-23.96 1.77,-13.64 5.7,-28.2 7.54,-39.86 5.05,-31.98 116.12,-132.95 186.8,-212.5 70.68,-79.56 153.14,-144.26 310.64,-129.12 157.5,15.15 239.66,126.22 300.24,205.3l-0 0.01zm130.26 208.61c-15.12,-16.23 -33.34,-17.11 -51.15,-4.92 -0.06,-17.45 -1.13,-34.89 -3.38,-52.22 -14.77,-114.19 -92.81,-269.87 -231.98,-336.31 -0.22,-1.19 -0.69,-2.42 -1.84,-3.56 -2.16,-2.13 -3.8,-4.28 -5.3,-6.9 -0.69,-1.18 -1.58,-1.9 -2.53,-2.43l-0.62 -1.39c-1.99,-2.88 -4.49,-5.08 -7.29,-6.9 -1.59,-1.74 -3.25,-3.4 -5.09,-4.9 5.9,1.24 11.79,2.47 18.03,3.93 -39.26,-36.48 -82.92,-82.34 -125.93,-138.78 -34,-44.59 -61.35,-87.58 -83.3,-126.55 20.19,11.22 80.78,11.22 80.78,11.22 -35.9,-26.93 -51.62,-96.49 -51.62,-96.49 24.69,11.22 51.62,4.49 51.62,4.49 -24.69,-26.93 -38.16,-76.29 -38.16,-76.29 26.93,2.25 26.93,-11.22 26.93,-11.22 -17.95,-11.22 -148.09,-127.9 -224.38,-166.05 -48.3,-24.15 -81.76,8.14 -99.82,35.07 -10.33,15.44 -13.16,34.58 -7.39,52.23 11.94,36.58 27.93,105.44 -16.2,116.89 -60.59,15.71 -69.57,-92 -67.33,-150.33 2.25,-58.36 -33.64,-96.49 -98.73,-96.49 -65.07,0 -112.19,78.54 -112.19,78.54 0,0 44.88,6.73 58.34,15.71 13.46,8.98 44.87,80.77 11.21,125.65 -33.64,44.88 -74.03,2.25 -92,-17.95 -17.95,-20.2 -2.23,-139.13 -24.67,-163.82 -22.44,-24.67 -154.83,33.66 -215.42,85.28 -60.58,51.61 -132.38,60.59 -132.38,60.59 0,29.17 38.14,26.93 38.14,26.93 -8.97,31.41 -35.9,67.31 -35.9,67.31l35.9 11.23c2.25,40.38 -33.66,71.8 -33.66,71.8l40.4 0c-8.12,32.51 -20.19,69.81 -38.42,109.51 -35.38,77.07 -80.4,133.61 -116.41,171.53 8.59,0.22 16.66,0.02 24.36,-0.43 -178.1,44.26 -276.79,228.77 -293.63,358.9 -2.63,20.27 -3.56,40.67 -3.2,61.06 -20.98,-20.81 -43.59,-23.39 -61.71,-3.92 -47.12,50.56 -60.58,622.03 0,708.21 53,75.4 264.93,353.32 353.56,446.26 -17.16,-3.89 -35.33,-6 -54.16,-6 -105.17,0 -190.73,65.28 -190.73,145.52 0,3.6 0.32,7.13 0.66,10.67l-0.01 0.04 0.02 0.04c1.83,18.81 8.31,36.62 18.68,52.76l0.05 0.13 0.11 0.15c4.84,7.47 10.52,14.57 16.89,21.27l122.57 154.37c43.06,42.86 110.56,48.89 160.52,14.33 106.74,-73.26 264.09,-123.42 442.44,-133.13 51.24,-2.79 117.05,-1.96 164.45,0 178.46,7.36 335.7,59.87 442.44,133.13 49.95,34.56 117.47,28.53 160.51,-14.33l122.57 -154.37c6.39,-6.7 12.07,-13.8 16.9,-21.27l0.11 -0.15 0.04 -0.13c10.38,-16.13 16.86,-33.95 18.69,-52.76l0.02 -0.04 -0.01 -0.04c0.33,-3.54 0.66,-7.07 0.66,-10.67 0,-80.24 -85.56,-145.52 -190.74,-145.52 -23.64,0 -46.27,3.31 -67.15,9.36 86.51,-89.25 303.15,-373.25 356.83,-449.62 60.59,-86.17 47.13,-657.65 0,-708.21l0.01 0zm0 0l0 0 0 0z"/>
      </g>
      <g>
       <path id="path64" class="fil4" d="M561.54 1419.81c198.58,-3.37 97.61,-42.08 97.61,-42.08 0,0 -45.44,-55.53 -62.28,-48.8 -16.82,6.74 -5.04,31.98 -62.26,35.34 -57.22,3.38 -184.8,42.27 -275.99,-102.66 -91.19,-144.92 -62.26,-164.91 -60.59,-185.11 1.68,-20.19 -10.09,-90.87 -10.09,-90.87 0,5.04 -57.22,148.09 18.51,254.12 75.73,106.01 156.51,183.43 355.09,180.07l-0 0zm0 0l0 0 0 0z"/>
      </g>
      <g>
       <path id="path66" class="fil4" d="M1353.51 707.65c-87.52,24.01 -232.25,251.04 -259.17,264.51 -26.93,13.46 -38.71,26.93 -26.93,33.65 11.79,6.74 71.45,-8.41 101.35,-8.41 29.92,0 50.11,-10.09 51.8,-25.24 1.67,-15.14 -10.1,-80.79 26.92,-126.21 37.04,-45.44 95.93,-138.29 225.51,-138.29l65.64 0c0,0 -75.73,-30.01 -185.12,0l-0 0zm0 0l0 0 0 0z"/>
      </g>
      <path id="path68" class="fil4" d="M739.92 845.95c37.03,45.42 25.25,111.07 26.93,126.21 1.68,15.15 21.88,25.24 51.79,25.24 29.92,0 89.58,15.15 101.35,8.41 11.78,-6.73 0,-20.19 -26.93,-33.65 -26.92,-13.46 -171.66,-240.5 -259.16,-264.51 -109.39,-30.01 -185.13,0 -185.13,0l65.63 0c129.59,0 188.49,92.86 225.51,138.29z"/>
      <g>
       <path id="path70" class="fil4" d="M1728.8 1261.61c-91.21,144.94 -218.77,106.03 -276,102.66 -57.22,-3.36 -45.43,-28.6 -62.26,-35.34 -16.83,-6.73 -62.27,48.8 -62.27,48.8 0,0 -100.96,38.71 97.62,42.08 198.58,3.36 279.35,-74.05 355.08,-180.07 75.73,-106.03 18.51,-249.08 18.51,-254.12 0,0 -11.79,70.68 -10.1,90.87 1.68,20.2 30.61,40.19 -60.58,185.11l0 0zm0 0l0 0 0 0z"/>
      </g>
      <g>
       <path id="path72" class="fil4" d="M731.3 1989.8c-88.67,-135.8 -9.9,-233.85 13.61,-283.19 23.52,-49.33 40.44,-29.31 52.18,-41.63 11.73,-12.34 -18.46,-73.65 -18.46,-73.65 0,0 4.01,-104.04 -70.58,70.35 -74.61,174.38 -38.85,275.28 22.76,382.61 61.6,107.31 202.34,111.1 206.56,113.01 0,0 -55.06,-37.3 -72.61,-43.49 -17.55,-6.19 -44.79,11.79 -133.45,-124.01l0 0zm0 0l0 0 0 0z"/>
      </g>
      <g>
       <path id="path74" class="fil4" d="M1185.03 1502.03c-9.91,7.86 -18.76,66.4 -29.57,92.86 -10.81,26.46 -9.64,48.17 2.46,55.41 12.11,7.25 71.46,21.79 96.2,71.82 24.74,50.04 81.38,137.46 34.54,252.09 -11.15,27.29 -23.73,58.06 -23.73,58.06 0,0 52.56,-55.58 66.92,-163.76 11.5,-86.54 -126.73,-300.93 -128.3,-329.87 -1.56,-28.94 -8.6,-44.48 -18.51,-36.62l0 0zm0 0l0 0 0 0z"/>
      </g>
      <g>
       <path id="path76" class="fil4" d="M445.83 935.36c7.67,6.43 189.19,157.78 296.17,197.19 91.06,33.54 212.34,146.95 235.69,169.33 4.5,4.33 10.31,6.49 16.12,6.49 5.7,0 11.41,-2.09 15.9,-6.28 68.86,-64.3 107.9,-97.64 117.11,-103.03 20.17,-3.1 85.35,-30.88 112.39,-47.06 30.8,-18.39 302.49,-190.6 314.03,-197.93l-14.42 -22.74c-2.82,1.79 -282.93,179.35 -313.41,197.55 -29.39,17.55 -92.33,42.44 -101.75,43.54 -6.78,0 -14.44,0 -129.81,107.65 -36.77,-35 -151.06,-139.11 -242.55,-172.8 -102.6,-37.81 -286.37,-191.02 -288.21,-192.56l-17.27 20.64 -0.01 0zm0 0l0 0 0 0z"/>
      </g>
      <g>
       <path id="path78" class="fil4" d="M436.08 2489.31c0.62,3.3 0.67,6.02 0.16,8.1 -0.87,3.83 -3.38,6.84 -7.53,9.06 -4.04,2.17 -8.17,2.42 -12.39,0.76 -4.22,-1.65 -7.96,-5.57 -11.18,-11.79 -3.22,-6.2 -4.46,-11.71 -3.64,-16.51 0.8,-4.8 3.45,-8.42 7.9,-10.82 4.39,-2.34 8.3,-2.89 11.73,-1.61 1.92,0.73 3.94,2.22 6.05,4.48 4.98,-2.59 7.48,-3.87 12.49,-6.41 -1.87,-3.44 -4.9,-6.25 -9.14,-8.41 -7.64,-3.85 -16.56,-3.13 -26.61,2.26 -7.51,4.03 -12.5,9.72 -14.93,16.94 -2.8,8.31 -1.57,17.26 3.55,26.89 4.74,8.88 10.84,14.54 18.19,17.04 7.35,2.49 15.06,1.51 23.23,-2.86 6.6,-3.53 11.09,-8.28 13.5,-14.32 2.41,-6.04 2.72,-12.41 0.85,-19.08 -4.9,2.48 -7.35,3.74 -12.23,6.28l-0.01 0zm0 0l0 0 0 0z"/>
      </g>
      <g>
       <path id="path80" class="fil4" d="M474.9 2481.11c-2.65,-5.87 -3.96,-8.8 -6.62,-14.65 11.6,-5.59 17.42,-8.3 29.12,-13.55 -1.7,-4.01 -2.54,-6.01 -4.23,-10.01 -11.79,5.3 -17.67,8.04 -29.37,13.68 -2.18,-4.84 -3.27,-7.26 -5.45,-12.09 12.86,-6.2 19.34,-9.2 32.32,-15 -1.71,-4.09 -2.58,-6.13 -4.29,-10.22 -18.16,8.11 -27.16,12.36 -45.08,21.23 10.54,22.66 15.79,34 26.33,56.65 17.64,-8.72 26.53,-12.89 44.4,-20.87 -1.74,-4.14 -2.6,-6.22 -4.34,-10.36 -13.18,5.86 -19.74,8.92 -32.79,15.2l0 0zm0 0l0 0 0 0z"/>
      </g>
      <path id="path82" class="fil4" d="M536.22 2398.24c6.09,16.36 9.13,24.54 15.23,40.9 -15.73,-12.53 -23.74,-18.69 -40.05,-30.74 -5.46,2.31 -8.19,3.47 -13.63,5.84 9.47,23.16 14.2,34.74 23.67,57.9 4.61,-2.02 6.91,-3 11.53,-4.95 -6.55,-16.52 -9.82,-24.76 -16.39,-41.26 16.56,12.28 24.69,18.53 40.63,31.31 4.99,-1.98 7.49,-2.96 12.5,-4.89 -8.52,-23.55 -12.77,-35.33 -21.28,-58.88 -4.9,1.88 -7.34,2.85 -12.22,4.78z"/>
      <path id="path84" class="fil4" d="M606.84 2372.62c-20.64,6.79 -30.9,10.44 -51.31,18.14 1.49,4.18 2.22,6.27 3.7,10.45 7.51,-2.84 11.28,-4.23 18.81,-6.93 6.6,19.52 9.89,29.28 16.49,48.81 5.07,-1.82 7.62,-2.72 12.7,-4.48 -6.4,-19.6 -9.59,-29.4 -15.99,-49.01 7.53,-2.61 11.31,-3.88 18.87,-6.37 -1.32,-4.25 -1.97,-6.36 -3.27,-10.61z"/>
      <g>
       <path id="path86" class="fil4" d="M655.85 2385.38c-1.22,1.06 -3.23,2.01 -6.03,2.84 -5.65,1.68 -8.46,2.53 -14.09,4.27 -1.89,-6.46 -2.83,-9.7 -4.71,-16.17 5.85,-1.81 8.78,-2.7 14.64,-4.43 2.73,-0.81 4.88,-1.06 6.45,-0.74 2.78,0.55 4.65,2.66 5.64,6.32 0.92,3.41 0.29,6.03 -1.88,7.91zm23.3 25.44c-0.48,-0.93 -1.09,-2.79 -1.81,-5.55 -0.44,-1.63 -0.64,-2.45 -1.06,-4.08 -1.11,-4.24 -2.54,-7.24 -4.28,-8.98 -1.74,-1.75 -4.2,-2.76 -7.41,-3.06 3.16,-2.14 5.13,-4.8 5.91,-8 0.8,-3.21 0.82,-6.25 0.07,-9.13 -0.61,-2.39 -1.55,-4.41 -2.83,-6.07 -1.28,-1.64 -2.79,-3.04 -4.54,-4.2 -2.13,-1.41 -4.51,-2.26 -7.13,-2.54 -2.61,-0.28 -6.14,0.16 -10.54,1.37 -12.27,3.6 -18.39,5.48 -30.59,9.41 7.25,24 10.86,35.99 18.14,59.98 4.96,-1.6 7.44,-2.38 12.42,-3.93 -2.75,-9.44 -4.13,-14.16 -6.88,-23.59 5.06,-1.57 7.6,-2.34 12.69,-3.86 3.62,-1.08 6.27,-1.15 7.95,-0.25 1.67,0.9 3.05,3.27 4.16,7.13 0.64,2.22 0.97,3.34 1.61,5.59 0.52,1.79 1.15,3.47 1.96,5.07 0.38,0.77 0.95,1.76 1.72,2.99 5.65,-1.63 8.47,-2.42 14.13,-3.97l-0.4 -1.52c-1.44,-0.41 -2.52,-1.35 -3.27,-2.8l0.01 0zm0 0l0 0 0 0z"/>
      </g>
      <path id="path88" class="fil4" d="M705.45 2384.72c1.01,-10.42 1.55,-15.64 2.69,-26.08 5.43,8.86 8.11,13.29 13.42,22.19 -6.45,1.51 -9.68,2.29 -16.11,3.89l0 0zm-7.99 -38.22c-3.55,26.73 -5.1,40.09 -7.73,66.77 5.37,-1.45 8.06,-2.16 13.45,-3.53 0.46,-5.43 0.69,-8.16 1.19,-13.6 9.16,-2.31 13.76,-3.42 22.95,-5.55 2.74,4.66 4.11,6.99 6.82,11.67 5.6,-1.28 8.41,-1.9 14.02,-3.11 -13.74,-22.71 -20.82,-33.99 -35.39,-56.35 -6.13,1.44 -9.19,2.18 -15.31,3.7z"/>
      <g>
       <path id="path90" class="fil4" d="M766.98 2383.77c-3.75,-20.26 -5.61,-30.38 -9.35,-50.63 -5.45,1.07 -8.17,1.62 -13.6,2.74 4.82,24.64 7.22,36.97 12.04,61.59 17.56,-3.65 26.38,-5.31 44.04,-8.29 -0.71,-4.46 -1.06,-6.69 -1.78,-11.15 -12.56,2.13 -18.82,3.27 -31.35,5.74l-0 0zm0 0l0 0 0 0z"/>
      </g>
      <g>
       <path id="path92" class="fil4" d="M864.44 2367.98c-1.46,0.91 -3.55,1.53 -6.29,1.86 -6.14,0.71 -9.21,1.1 -15.33,1.9 -0.82,-6.65 -1.22,-9.96 -2.04,-16.61 6.29,-0.82 9.43,-1.21 15.74,-1.96 2.76,-0.3 4.93,-0.18 6.51,0.33 2.85,0.91 4.43,3 4.77,6.25 0.39,3.84 -0.73,6.58 -3.35,8.24zm-26.64 -36.92c5.68,-0.75 8.51,-1.11 14.19,-1.79 3.12,-0.36 5.8,-0.38 7.8,0.1 2.38,0.57 3.8,2.46 4.09,5.36 0.27,2.63 -0.41,4.56 -2.05,5.78 -1.64,1.22 -3.86,2.01 -6.67,2.34 -6.27,0.74 -9.41,1.13 -15.67,1.94 -0.69,-5.49 -1.02,-8.25 -1.7,-13.74l-0 0zm32.22 14.5c2.04,-1.32 3.58,-2.65 4.56,-4.08 1.78,-2.52 2.49,-5.67 2.14,-9.5 -0.35,-3.69 -1.63,-6.8 -3.9,-9.25 -3.75,-3.98 -9.66,-5.62 -17.7,-4.81 -12.71,1.47 -19.06,2.29 -31.75,4.09 3.33,24.9 4.98,37.34 8.3,62.24 11.26,-1.61 16.9,-2.33 28.2,-3.66 3.19,-0.38 6.11,-0.99 8.78,-1.86 2.66,-0.87 4.91,-2.17 6.78,-3.89 1.65,-1.52 2.97,-3.31 3.99,-5.39 1.6,-3.13 2.23,-6.53 1.89,-10.23 -0.33,-3.6 -1.43,-6.6 -3.33,-8.94 -1.89,-2.35 -4.56,-3.93 -7.96,-4.75l0 0zm0 0l0 0 0 0z"/>
      </g>
      <path id="path94" class="fil4" d="M909.81 2352.01c2.64,-10.12 3.99,-15.16 6.76,-25.27 3.92,9.66 5.85,14.49 9.65,24.17 -6.56,0.39 -9.85,0.62 -16.41,1.1l0 0zm-1.79 -39.07c-7.7,25.76 -11.33,38.66 -18.13,64.52 5.49,-0.5 8.24,-0.74 13.73,-1.17 1.32,-5.29 1.98,-7.93 3.33,-13.22 9.34,-0.71 14.02,-1.02 23.38,-1.56 1.97,5.06 2.93,7.6 4.86,12.66 5.7,-0.31 8.55,-0.44 14.25,-0.68 -9.89,-24.74 -15.05,-37.05 -25.81,-61.58 -6.25,0.37 -9.36,0.58 -15.61,1.03z"/>
      <g>
       <path id="path96" class="fil4" d="M995.88 2309.64c0.04,17.52 0.06,26.29 0.1,43.82 -10.19,-17.5 -15.46,-26.19 -26.34,-43.48 -5.79,0.14 -8.7,0.22 -14.48,0.42 0.83,25.13 1.24,37.68 2.08,62.8 4.9,-0.17 7.36,-0.25 12.26,-0.36 -0.42,-17.84 -0.63,-26.75 -1.04,-44.58 11.03,17.57 16.37,26.42 26.68,44.21 5.25,-0.02 7.88,-0 13.16,0.03 0.18,-25.13 0.27,-37.68 0.45,-62.83 -5.15,-0.04 -7.73,-0.05 -12.87,-0.03l0 0zm0 0l0 0 0 0z"/>
      </g>
      <path id="path98" class="fil4" d="M1061.04 2311.17c-10.69,9.83 -15.94,14.82 -26.23,24.89 0.27,-10.36 0.42,-15.53 0.71,-25.89 -5.45,-0.17 -8.15,-0.24 -13.59,-0.33 -0.43,25.13 -0.65,37.68 -1.08,62.82 5.18,0.09 7.77,0.16 12.95,0.3 0.24,-8.39 0.34,-12.6 0.58,-21 2.65,-2.49 3.97,-3.74 6.65,-6.2 7.57,11.24 11.28,16.88 18.5,28.24 6.76,0.34 10.14,0.53 16.89,0.97 -9.95,-15.47 -15.08,-23.15 -25.67,-38.41 11.04,-9.88 16.66,-14.77 28.11,-24.38 -7.13,-0.46 -10.69,-0.65 -17.82,-1.01z"/>
      <path id="path100" class="fil4" d="M1149.91 2366.8c-3.52,3.42 -7.89,4.82 -13.11,4.21 -5.22,-0.6 -9.2,-2.96 -11.95,-7.11 -2.74,-4.13 -3.81,-9.73 -3.16,-16.77 0.67,-7.04 2.79,-12.3 6.36,-15.79 3.59,-3.48 8.12,-4.92 13.51,-4.29 5.41,0.62 9.48,3.05 12.2,7.27 2.7,4.22 3.61,9.83 2.75,16.82 -0.86,7.02 -3.08,12.23 -6.61,15.64l0 0zm-7.15 -50.82c-9.41,-1.09 -16.91,0.93 -22.27,4.99 -6.78,5.15 -11.19,13.42 -12.15,24.9 -0.95,11.23 1.85,20.13 7.41,26.71 4.31,5.12 10.89,8.44 19.85,9.48 8.94,1.02 16.08,-0.71 21.4,-4.72 6.82,-5.15 11.44,-13.19 12.93,-24.38 1.51,-11.4 -1,-20.47 -6.49,-27.03 -4.35,-5.2 -11.24,-8.86 -20.67,-9.95z"/>
      <path id="path102" class="fil4" d="M1175.75 2385.63c5.19,0.77 7.78,1.18 12.95,2.01 1.58,-10.4 2.36,-15.6 3.94,-26.02 11.29,1.82 16.92,2.8 28.17,4.88 0.76,-4.29 1.13,-6.45 1.87,-10.75 -11.35,-2.1 -17.02,-3.08 -28.42,-4.92 0.86,-5.71 1.3,-8.56 2.17,-14.28 13.13,2.12 19.68,3.26 32.77,5.74 0.77,-4.35 1.15,-6.52 1.92,-10.86 -18.61,-3.52 -27.94,-5.1 -46.65,-7.89 -3.49,24.84 -5.24,37.26 -8.74,62.09z"/>
      <g>
       <path id="path104" class="fil4" d="M1304.86 2347.55c-4.03,17.03 -6.04,25.55 -10.08,42.57 -5.89,-19.53 -9.01,-29.27 -15.63,-48.74 -5.68,-1.31 -8.53,-1.94 -14.23,-3.19 -5.03,24.6 -7.54,36.9 -12.56,61.5 4.82,1.04 7.25,1.58 12.06,2.67 3.73,-17.4 5.59,-26.11 9.33,-43.53 6.7,19.79 9.85,29.7 15.8,49.55 5.15,1.28 7.71,1.95 12.85,3.29 6.01,-24.35 9.03,-36.53 15.03,-60.89 -5.03,-1.32 -7.54,-1.96 -12.57,-3.24l0 0zm0 0l0 0 0 0z"/>
      </g>
      <path id="path106" class="fil4" d="M1328.96 2353.88c-6.24,24.3 -9.34,36.45 -15.58,60.74 5.1,1.4 7.64,2.11 12.74,3.56 6.48,-24.23 9.72,-36.33 16.2,-60.56 -5.35,-1.52 -8.01,-2.28 -13.36,-3.74z"/>
      <g>
       <path id="path108" class="fil4" d="M1373.11 2408.24c5.73,1.85 8.58,2.8 14.29,4.72 -1.87,3.68 -4.57,6.25 -8.07,7.75 -3.48,1.5 -7.36,1.56 -11.66,0.17 -4.37,-1.42 -7.82,-4.18 -10.4,-8.32 -2.54,-4.14 -2.79,-9.89 -0.67,-17.3 2.11,-7.35 5.33,-12.36 9.66,-14.99 4.35,-2.63 9.08,-3.13 14.19,-1.5 2.65,0.87 4.94,2.09 6.83,3.7 3.38,2.9 4.93,6.57 4.64,10.98 5.15,1.72 7.72,2.61 12.86,4.39 1.17,-5.98 -0.05,-11.74 -3.71,-17.24 -3.65,-5.51 -9.56,-9.62 -17.67,-12.24 -9.36,-3 -17.79,-2.39 -25.12,1.8 -7.36,4.18 -12.32,11.22 -15,20.99 -2.67,9.66 -1.92,18.11 1.82,25.28 3.65,7 9.42,11.88 17.47,14.45 4.88,1.57 9.3,1.9 13.28,1 2.32,-0.53 5.14,-1.77 8.49,-3.76 -0.44,3.16 -0.66,4.74 -1.1,7.88 3.35,1.14 5.03,1.72 8.37,2.88 4.18,-12.78 6.27,-19.17 10.44,-31.94 -10.34,-3.6 -15.52,-5.34 -25.91,-8.7 -1.21,4.01 -1.81,6.01 -3.03,10l-0.01 0zm0 0l0 0 0 0z"/>
      </g>
      <g>
       <path id="path110" class="fil4" d="M1433.33 2399.15c13.23,4.93 19.83,7.49 32.97,12.81 1.57,-4.15 2.36,-6.23 3.93,-10.37 -18.35,-7.44 -27.58,-10.95 -46.13,-17.64 -8.03,23.73 -12.05,35.6 -20.07,59.32 18.26,6.58 27.35,10.07 45.41,17.41 1.61,-4.21 2.4,-6.32 4.01,-10.52 -13.3,-5.4 -19.99,-8.01 -33.42,-13.01 2.13,-6.08 3.19,-9.12 5.32,-15.2 11.93,4.44 17.87,6.76 29.71,11.51 1.54,-4.06 2.3,-6.1 3.86,-10.16 -11.95,-4.81 -17.95,-7.13 -29.98,-11.61 1.77,-5.01 2.64,-7.52 4.39,-12.54l0 0zm0 0l0 0 0 0z"/>
      </g>
      <g>
       <path id="path112" class="fil4" d="M1504.74 2445.32c-1.62,0.02 -3.77,-0.57 -6.49,-1.77 -5.45,-2.43 -8.19,-3.62 -13.66,-5.97 2.52,-6.23 3.77,-9.35 6.29,-15.59 5.7,2.45 8.53,3.68 14.2,6.2 2.63,1.17 4.47,2.4 5.49,3.68 1.85,2.27 2,5.13 0.52,8.61 -1.38,3.22 -3.49,4.84 -6.34,4.84l-0 -0zm14.1 6.4c2.6,-1.94 4.5,-4.28 5.7,-6.99 0.99,-2.25 1.49,-4.43 1.51,-6.55 0.02,-2.11 -0.3,-4.19 -0.96,-6.25 -0.8,-2.49 -2.16,-4.72 -4.03,-6.67 -1.88,-1.94 -4.91,-3.91 -9.11,-5.88 -11.84,-5.3 -17.79,-7.86 -29.71,-12.85 -9.13,23.3 -13.7,34.96 -22.83,58.26 4.86,2.03 7.29,3.05 12.12,5.13 3.68,-9.1 5.51,-13.65 9.18,-22.74 4.93,2.11 7.39,3.19 12.3,5.36 3.51,1.56 5.62,3.25 6.39,5.04 0.74,1.79 0.36,4.54 -1.14,8.24 -0.87,2.16 -1.32,3.24 -2.19,5.38 -0.71,1.72 -1.24,3.44 -1.6,5.2 -0.18,0.84 -0.33,1.99 -0.51,3.44 5.43,2.47 8.14,3.73 13.55,6.26l0.63 -1.43c-0.88,-1.26 -1.14,-2.71 -0.84,-4.34 0.2,-1.02 0.86,-2.85 2,-5.46 0.68,-1.54 1.02,-2.3 1.69,-3.85 1.75,-4.01 2.48,-7.27 2.19,-9.76 -0.28,-2.48 -1.59,-4.9 -3.92,-7.24 3.8,0.44 6.99,-0.31 9.58,-2.28l-0 -0zm0 0l0 0 0 0z"/>
      </g>
      <g>
       <path id="path114" class="fil4" d="M1542.95 2433.73c-10.27,22.8 -15.41,34.19 -25.68,56.98 4.85,2.32 7.27,3.5 12.12,5.9 10.5,-22.68 15.77,-34.02 26.28,-56.69 -5.08,-2.51 -7.62,-3.75 -12.72,-6.2l0 0zm0 0l0 0 0 0z"/>
      </g>
      <g>
       <path id="path116" class="fil4" d="M1581.94 2497.28c-6,-3.24 -8.99,-4.85 -15.02,-8 7.4,-7.22 11.13,-10.81 18.64,-17.94 -1.39,10.4 -2.12,15.58 -3.62,25.95l0 -0zm-45.31 2.94c5.07,2.55 7.61,3.84 12.67,6.46 3.79,-3.82 5.72,-5.72 9.55,-9.5 8.59,4.48 12.87,6.76 21.4,11.42 -0.81,5.41 -1.22,8.1 -2.07,13.49 5.18,2.86 7.77,4.31 12.93,7.24 3.67,-26.59 5.3,-39.97 8.12,-66.83 -5.7,-3.09 -8.55,-4.62 -14.28,-7.62 -19.71,17.84 -29.37,26.92 -48.31,45.35l-0 -0zm0 0l0 0 0 0z"/>
      </g>
     </g>
     <g>
      <g>
       <path id="path118" class="fil5" d="M561.54 1419.81c-198.58,3.36 -279.37,-74.05 -355.09,-180.07 -75.73,-106.03 -18.51,-249.08 -18.51,-254.12 0,0 11.78,70.68 10.09,90.87 -1.68,20.2 -30.61,40.19 60.58,185.11 91.19,144.94 218.78,106.03 275.99,102.66 57.22,-3.36 45.44,-28.6 62.26,-35.34 16.83,-6.73 62.27,48.8 62.27,48.8 0,0 100.97,38.71 -97.61,42.08l0.01 0zm72.37 -712.16c87.51,24.01 232.24,251.04 259.16,264.51 26.93,13.46 38.71,26.93 26.93,33.65 -11.78,6.74 -71.44,-8.41 -101.35,-8.41 -29.91,0 -50.11,-10.09 -51.79,-25.24 -1.68,-15.14 10.09,-80.79 -26.93,-126.21 -37.03,-45.44 -95.93,-138.29 -225.51,-138.29l-65.63 0c0,0 75.73,-30.01 185.13,0zm132.95 702.06c3.35,-25.24 -111.08,-117.81 -111.08,-117.81l-33.66 -18.51c0,0 -137.8,96.25 -257.47,20.2 -119.68,-76.04 -122.85,-185.12 -90.88,-324.8 31.98,-139.69 174.05,-191.44 181.75,-195.68 50.09,-27.52 106.03,-14.69 176.71,27.69 70.68,42.38 90.88,109.08 89.19,139.37 -1.68,30.29 8.42,75.73 30.3,87.52 21.88,11.78 149.77,37.02 201.45,40.38 51.67,3.38 30.78,-50.49 25.74,-82.46 -5.05,-31.98 -116.12,-132.95 -186.81,-212.5 -70.69,-79.57 -153.15,-144.26 -310.66,-129.13 -157.51,15.15 -239.65,126.23 -300.24,205.31 -60.58,79.11 -76.65,251.4 -21.88,388.76 54.78,137.36 193.54,205.31 266.7,227.19 73.15,21.88 246.6,-3.36 295.4,-8.41 48.79,-5.04 42.07,-21.88 45.44,-47.12l0 0zm0 0l0 0 0 0z"/>
      </g>
      <g>
       <path id="path120" class="fil5" d="M1780.96 1239.75c-75.73,106.01 -156.5,183.43 -355.08,180.07 -198.58,-3.37 -97.62,-42.08 -97.62,-42.08 0,0 45.44,-55.53 62.27,-48.8 16.83,6.74 5.05,31.98 62.26,35.34 57.23,3.38 184.8,42.27 276,-102.66 91.19,-144.92 62.26,-164.91 60.58,-185.11 -1.68,-20.19 10.1,-90.87 10.1,-90.87 0,5.04 57.22,148.09 -18.51,254.12l-0 0zm-307.98 -532.09c-129.59,0 -188.47,92.86 -225.51,138.29 -37.02,45.42 -25.24,111.07 -26.92,126.21 -1.69,15.15 -21.88,25.24 -51.8,25.24 -29.91,0 -89.57,15.15 -101.35,8.41 -11.78,-6.73 0,-20.19 26.93,-33.65 26.92,-13.46 171.66,-240.5 259.17,-264.51 109.38,-30.01 185.12,0 185.12,0l-65.64 0zm333.22 141.65c-60.58,-79.09 -142.73,-190.16 -300.24,-205.31 -157.5,-15.14 -239.96,49.56 -310.64,129.13 -70.68,79.55 -181.76,180.53 -186.81,212.5 -5.06,31.97 -25.93,85.83 25.74,82.46 51.68,-3.36 179.58,-28.61 201.45,-40.38 21.88,-11.79 31.98,-57.23 30.3,-87.52 -1.68,-30.29 18.51,-96.99 89.2,-139.37 70.69,-42.38 126.63,-55.22 176.7,-27.69 7.71,4.24 149.79,55.99 181.75,195.68 31.98,139.68 28.81,248.76 -90.87,324.79 -119.68,76.05 -257.48,-20.2 -257.48,-20.2l-33.66 18.51c0,0 -114.44,92.56 -111.06,117.81 3.36,25.24 -3.38,42.08 45.44,47.12 48.79,5.05 222.24,30.29 295.4,8.41 73.15,-21.88 211.92,-89.83 266.68,-227.19 54.77,-137.36 38.71,-309.65 -21.88,-388.76l-0 -0zm0 0l0 0 0 0z"/>
      </g>
      <g>
       <path id="path122" class="fil5" d="M1331.85 1868.51c-14.36,108.18 -66.92,163.76 -66.92,163.76 0,0 12.58,-30.77 23.73,-58.06 46.84,-114.62 -9.8,-202.04 -34.54,-252.08 -24.74,-50.03 -84.09,-64.57 -96.2,-71.82 -12.1,-7.25 -13.27,-28.96 -2.46,-55.41 10.82,-26.47 19.66,-85 29.58,-92.86 9.91,-7.86 16.96,7.68 18.51,36.61 1.57,28.94 139.8,243.33 128.3,329.87l0 -0zm-601.05 175.77c-61.61,-107.32 -97.37,-208.23 -22.76,-382.61 74.6,-174.39 70.58,-70.35 70.58,-70.35 0,0 30.18,61.31 18.46,73.65 -11.74,12.33 -28.66,-7.69 -52.18,41.64 -23.5,49.33 -102.28,147.39 -13.61,283.19 88.66,135.8 115.9,117.82 133.45,124.01 17.55,6.19 72.61,43.49 72.61,43.49 -4.22,-1.91 -144.96,-5.71 -206.56,-113.01l0 -0zm492.47 -586.67c-25,-16.63 -62.65,-55.58 -78.5,-8.59 -15.86,46.99 -40.9,169.72 -38.93,193.56 1.98,23.84 36.47,50.05 62.5,60.08 26.02,10.03 150.51,139.56 7.11,322.54 -5.05,6.46 -64.15,87.41 -192.92,62.57 -128.78,-24.84 -219.18,-69.13 -239.73,-203.91 -20.56,-134.8 110.02,-220.1 110.02,-220.1l-3.37 -36.81c0,0 -36.31,-136.44 -58.72,-143.06 -22.4,-6.63 -34.08,-18.97 -55.96,22.28 -21.88,41.25 -105.76,185.07 -113.84,258.1 -8.08,73.03 -1.21,221.65 94.27,322.32 95.47,100.7 245.87,152.01 334.15,128.51 88.29,-23.51 211.18,-53.94 280.83,-187.51 69.64,-133.57 45.15,-231.14 3.92,-323.92 -41.21,-92.78 -85.8,-229.44 -110.82,-246.06l-0.01 0zm0 0l0 0 0 0z"/>
      </g>
     </g>
    </g>
   </g>
  </g>
 </g>
</svg>
